<svg xmlns="http://www.w3.org/2000/svg" xml:space="preserve" id="Layer_1" x="0" y="0" version="1.1" viewBox="0 0 230 45"><style>.st4{fill:#fff}.st5,.st6{fill:#0069ff}.st6{opacity:.35;enable-background:new}.st9{fill:#4c9cfb}</style><g id="eeee"><radialGradient id="SVGID_00000054960599791672864650000016202154109839038084_" cx="196.12" cy="910.492" r="23.631" gradientTransform="translate(0 -888)" gradientUnits="userSpaceOnUse"><stop offset=".342" stop-color="#f7931e"/><stop offset="1" stop-color="#ed1c24"/></radialGradient><path fill="url(#SVGID_00000054960599791672864650000016202154109839038084_)" d="M221.36 12.87C220.38 6.01 214.55.74 207.5.74c-4.69 0-8.84 2.34-11.38 5.92-2.54-3.58-6.69-5.92-11.38-5.92-7.04 0-12.88 5.27-13.86 12.13a15.69 15.69 0 0 0-.1 3.14c1.01 15.62 18.13 24.88 23.65 27.48v.01c1.05.49 1.68.74 1.68.74s.01 0 .02-.01c.01 0 .02.01.02.01s.63-.25 1.68-.74v-.01c5.52-2.59 22.64-11.85 23.65-27.48.05-1.02.03-2.12-.12-3.14z"/><path d="m198.16 31.84-.02.02c.11-.13.22-.26.34-.39l-.01.01c-.09.11-.2.23-.31.36zM199.08 30.88l-.1.1c2.13-2.05 5.01-3.34 8.15-3.4 3.12-.06 5.98 1.07 8.16 2.96l.01-.01c-2.18-1.89-5.04-3.03-8.16-2.96-3.1.05-5.93 1.3-8.06 3.31zM198.6 31.36c-.02.02-.03.03-.04.05.11-.12.22-.23.34-.34l-.02.02c-.1.08-.2.17-.28.27z" class="st9"/><path d="M198.16 31.84c.1-.13.22-.25.33-.37-.11.12-.22.24-.33.37zM198.6 31.36c.09-.1.18-.19.28-.29-.1.1-.2.19-.28.29zM203.71 14.61c3.99.26 7.77 2.59 7.77 2.59-7.03-7.38-18.67-9.46-24.05-.85 0 0-4.26.93-7.48 3.98 10.08-1.48 17.88 4.14 19.29 10.42-.05.05-.1.1-.15.14 2.12-2 4.96-3.26 8.06-3.31 3.12-.06 5.98 1.07 8.16 2.96.67-.81 1.32-1.67 1.91-2.55-4.69-10.75-13.51-13.38-13.51-13.38zM197.45 32.76c.1-.15.22-.3.33-.45-.12.15-.23.3-.33.45zM197.79 32.3c.11-.14.22-.28.34-.42-.12.14-.23.28-.34.42zM195.27 39.22c.09-2.39.89-4.61 2.18-6.45-1.3 1.84-2.1 4.05-2.18 6.45-.03.86.02 1.71.17 2.53-.15-.83-.21-1.67-.17-2.53z" class="st4"/><path d="M198.49 31.47c0-.01 0-.01 0 0l.06-.06c.02-.02.03-.03.04-.05-.03.04-.07.07-.1.11z" class="st9"/><path d="M198.49 31.47c0-.01 0-.01 0 0l.06-.06c.02-.02.03-.03.04-.05-.03.04-.07.07-.1.11z" class="st6"/><path d="m198.14 31.87.02-.02.02-.02-.04.04z" class="st9"/><path d="m198.14 31.87.02-.02.02-.02-.04.04z" class="st6"/><path d="M179.95 20.32s-.01 0 0 0c15.02 1.73 7.97 12.04 12.41 22.15 0 0 .01 0 .01.01-4.45-10.12 2.61-20.43-12.42-22.16z" class="st9"/><path d="M179.95 20.32s-.01 0 0 0c15.02 1.73 7.97 12.04 12.41 22.15 0 0 .01 0 .01.01-4.45-10.12 2.61-20.43-12.42-22.16z" class="st6"/><path d="m198.87 31.08.02-.02.1-.1.1-.1c-.08.09-.15.15-.22.22z" class="st9"/><path d="m198.87 31.08.02-.02.1-.1.1-.1c-.08.09-.15.15-.22.22z" class="st6"/><path d="M192.38 42.47c.79.41 1.48.75 2.05 1.02v.01c1.05.49 1.68.74 1.68.74s.01 0 .02-.01c.01 0 .02.01.02.01s.01-.01.03-.01c-.33-.8-.57-1.63-.73-2.5-.14-.82-.2-1.67-.17-2.54.09-2.38.89-4.6 2.18-6.44.1-.15.22-.3.33-.45 0-.01.01-.01.01-.02.11-.14.22-.28.34-.42l.01-.01c.01-.01.02-.02.02-.03.1-.13.22-.25.33-.37.03-.03.06-.07.1-.1.09-.1.18-.19.28-.29.07-.07.14-.14.21-.2.05-.05.1-.1.15-.14-1.4-6.27-9.2-11.89-19.29-10.42 15.03 1.75 7.97 12.06 12.43 22.17z" class="st4"/><path d="M192.38 42.47c.79.41 1.48.75 2.05 1.02v.01c1.05.49 1.68.74 1.68.74s.01 0 .02-.01c.01 0 .02.01.02.01s.01-.01.03-.01c-.33-.8-.57-1.63-.73-2.5-.14-.82-.2-1.67-.17-2.54.09-2.38.89-4.6 2.18-6.44.1-.15.22-.3.33-.45 0-.01.01-.01.01-.02.11-.14.22-.28.34-.42l.01-.01c.01-.01.02-.02.02-.03.1-.13.22-.25.33-.37.03-.03.06-.07.1-.1.09-.1.18-.19.28-.29.07-.07.14-.14.21-.2.05-.05.1-.1.15-.14-1.4-6.27-9.2-11.89-19.29-10.42 15.03 1.75 7.97 12.06 12.43 22.17z" class="st6"/><path d="m198.99 30.97-.1.1c-.11.11-.22.23-.34.34-.02.02-.03.03-.05.06-.12.13-.23.26-.34.39l-.02.02c-1.69 2-2.75 4.55-2.86 7.33-.06 1.79.26 3.49.89 5.03.14-.06.73-.3 1.64-.73v-.01c3.51-1.64 11.71-5.99 17.48-12.96-2.18-1.89-5.03-3.03-8.16-2.96-3.14.04-6.01 1.34-8.14 3.39z" class="st5"/><path d="M197.79 32.3c0 .01-.01.01-.01.02-.11.14-.22.3-.33.45a12.012 12.012 0 0 0-2.01 8.98c.15.87.4 1.7.73 2.5h.01c-.63-1.54-.97-3.24-.89-5.03.1-2.78 1.17-5.32 2.86-7.33v.01c-.14.12-.25.26-.36.4zM198.55 31.41c-.02.02-.03.03-.05.06.02-.02.03-.04.05-.06zM198.88 31.07l.1-.1c-.03.03-.07.06-.1.1zM198.13 31.88l.02-.02s-.01 0-.02.02c0-.01 0-.01 0 0zM198.12 31.88c.01 0 .01 0 0 0 .01-.01.01-.01 0 0 .01-.01.01 0 0 0zM196.16 44.24zM197.45 32.77zM197.77 32.31c0-.01.01-.01.01-.02 0 .01 0 .02-.01.02zM195.99 16.21a2.014 2.014 0 0 1-1.88 2.75c-1.12 0-2.02-.9-2.02-2.02 0-.26.06-.51.14-.74-.54.12-1.02.3-1.4.54-.02.17-.02.35.02.53.26 1.73 1.92 3.04 3.72 2.89 1.8-.16 3.38-1.51 3.53-2.99.01-.09.01-.16 0-.25-.58-.3-1.3-.54-2.11-.71z" class="st5"/><path d="M179.95 20.32c3.82.44 6.22 1.44 7.74 2.84.94-.47 1.99-1.2 2.5-1.84-2.2-2.2-2.75-4.99-2.75-4.99-.02.01-4.28.94-7.49 3.99z" class="st6"/><path d="M196.13 44.5h-.03c-.03 0-.06-.01-.09-.02-.02-.01-.65-.26-1.69-.75a.21.21 0 0 1-.06-.04c-5.4-2.54-22.72-11.91-23.74-27.66-.07-1.11-.03-2.21.1-3.19C171.63 5.81 177.7.5 184.73.5c4.46 0 8.69 2.14 11.38 5.75C198.8 2.65 203.03.5 207.49.5c7.03 0 13.1 5.31 14.11 12.34.14.98.18 2.08.1 3.19-1.02 15.74-18.32 25.11-23.73 27.66-.02.02-.05.03-.07.05-1.05.49-1.67.73-1.69.75-.02.01-.05.01-.08.01zm-1.53-1.2c.78.37 1.33.59 1.52.68.2-.08.74-.31 1.54-.68.02-.02.03-.02.05-.03 5.26-2.47 22.5-11.73 23.51-27.26.07-1.07.03-2.14-.1-3.09-.97-6.79-6.83-11.9-13.6-11.9-4.41 0-8.59 2.17-11.18 5.81-.1.14-.32.14-.42 0-2.58-3.64-6.76-5.81-11.18-5.81-6.78 0-12.63 5.12-13.6 11.9-.14.95-.18 2.01-.1 3.09 1.01 15.53 18.25 24.79 23.51 27.26.01 0 .03.02.05.03zM137.17 23.98c.95-.3 1.71-.79 2.29-1.48.58-.69.87-1.57.87-2.65 0-1.35-.49-2.38-1.48-3.11-.98-.73-2.34-1.09-4.08-1.09h-6.36v13.68h3.11v-5.07h2.6l3.92 5.07h3.41l-4.28-5.35zm-3.62-.66h-2.01v-6.74h2c2.39 0 3.58 1.13 3.58 3.39-.01 2.23-1.2 3.35-3.57 3.35M12.96 29.34 8.25 15.66h3.23l3.89 11.85 4.18-11.85h2.88l4.26 11.83 3.79-11.83h1.47l-4.6 13.68h-2.96l-4.26-11.66-4.21 11.66zM37 29.34V15.66h3.12v6.15h7.05v-6.15h3.12v13.68h-3.12v-6.57h-7.05v6.57zM57.39 15.66h3.11v13.68h-3.11zM70.19 29.34V16.67h-4.87v-1.01h12.87v1.01H73.3v12.67zM82.98 29.34V15.66h10.33v1.01H86.1v5.14h6.61v.96H86.1v5.57h7.79v1zM99.57 15.66h6.55c1.72 0 3.05.31 3.98.93s1.4 1.44 1.4 2.47c0 .76-.24 1.39-.71 1.89-.47.51-1.06.91-1.76 1.2 1.01.22 1.82.61 2.41 1.18.58.56.88 1.27.88 2.12 0 1.24-.51 2.19-1.54 2.87-1.03.67-2.58 1.01-4.65 1.01h-6.57l.01-13.67zm6.22 6.19c.37 0 .76-.08 1.17-.26.42-.17.77-.46 1.06-.85.3-.4.45-.93.45-1.57 0-.85-.33-1.5-.97-1.93-.65-.44-1.51-.65-2.58-.65h-2.24v5.26h3.11zm-.84 6.57c2.86 0 4.29-1.01 4.29-3.01 0-.89-.3-1.57-.92-2.02-.61-.45-1.42-.67-2.42-.67h-3.21v5.71l2.26-.01zM118.19 15.66h3.11v13.68h-3.11zM159.59 17.44c-1.36-1.18-3.26-1.78-5.72-1.78h-6.9v13.68h6.9c2.49 0 4.41-.58 5.75-1.75 1.34-1.17 2.01-2.85 2.01-5.05 0-2.22-.68-3.92-2.04-5.1m-6.81 10.89h-2.71V16.66h2.67c3.74 0 5.6 1.96 5.6 5.88.01 3.86-1.85 5.79-5.56 5.79" class="st4"/></g></svg>